<svg width="16" height="14" viewBox="0 0 16 14" fill="none" xmlns="http://www.w3.org/2000/svg">
<path d="M4.32964 11.0833C3.77154 11.537 3.19033 11.7444 2.586 11.7056C1.98166 11.6667 1.45333 11.4657 1.00101 11.1028C0.548691 10.7398 0.239879 10.2636 0.0745776 9.674C-0.0907241 9.08444 0.0187683 8.4783 0.403055 7.85556L1.89795 5.44444C1.56575 5.15926 1.30344 4.81574 1.11104 4.41389C0.918627 4.01204 0.822156 3.57778 0.821625 3.11111C0.821625 2.25556 1.13389 1.52315 1.75842 0.913889C2.38296 0.30463 3.13372 0 4.01073 0C4.88773 0 5.6385 0.30463 6.26303 0.913889C6.88756 1.52315 7.19983 2.25556 7.19983 3.11111C7.19983 3.96667 6.88756 4.69907 6.26303 5.30833C5.6385 5.91759 4.88773 6.22222 4.01073 6.22222C3.89114 6.22222 3.77154 6.21574 3.65195 6.20278C3.53236 6.18982 3.41941 6.17037 3.31311 6.14444L1.77836 8.67222C1.63219 8.90556 1.58568 9.13578 1.63883 9.36289C1.69198 9.59 1.80493 9.77459 1.97767 9.91667C2.15042 10.0587 2.35638 10.1399 2.59556 10.1601C2.83475 10.1803 3.06728 10.0992 3.29318 9.91667L11.6646 2.89722C12.2227 2.44352 12.8073 2.23922 13.4186 2.28433C14.0298 2.32944 14.5613 2.53374 15.0131 2.89722C15.4649 3.2607 15.7705 3.73722 15.93 4.32678C16.0895 4.91633 15.9765 5.52222 15.5912 6.14444L14.0963 8.55556C14.4285 8.84074 14.691 9.18426 14.884 9.58611C15.0769 9.98796 15.1731 10.4222 15.1726 10.8889C15.1726 11.7444 14.8603 12.4769 14.2358 13.0861C13.6113 13.6954 12.8605 14 11.9835 14C11.1065 14 10.3557 13.6954 9.73118 13.0861C9.10665 12.4769 8.79438 11.7444 8.79438 10.8889C8.79438 10.0333 9.10665 9.30093 9.73118 8.69167C10.3557 8.08241 11.1065 7.77778 11.9835 7.77778C12.1031 7.77778 12.2195 7.78426 12.3327 7.79722C12.4459 7.81018 12.5554 7.82963 12.6612 7.85556L14.2159 5.32778C14.362 5.09444 14.4085 4.86422 14.3554 4.63711C14.3022 4.41 14.1893 4.22541 14.0165 4.08333C13.8438 3.94126 13.6378 3.86037 13.3986 3.84067C13.1595 3.82096 12.9269 3.90185 12.701 4.08333L4.32964 11.0833ZM4.01073 4.66667C4.44923 4.66667 4.82475 4.51448 5.13728 4.21011C5.44981 3.90574 5.60581 3.53941 5.60528 3.11111C5.60475 2.68281 5.44875 2.31674 5.13728 2.01289C4.82581 1.70904 4.45029 1.55659 4.01073 1.55556C3.57116 1.55452 3.19591 1.70696 2.88497 2.01289C2.57404 2.31881 2.41777 2.68489 2.41618 3.11111C2.41458 3.53733 2.57085 3.90367 2.88497 4.21011C3.1991 4.51656 3.57435 4.66874 4.01073 4.66667ZM11.9835 12.4444C12.422 12.4444 12.7975 12.2923 13.11 11.9879C13.4226 11.6835 13.5786 11.3172 13.578 10.8889C13.5775 10.4606 13.4215 10.0945 13.11 9.79067C12.7986 9.48682 12.423 9.33437 11.9835 9.33333C11.5439 9.3323 11.1687 9.48474 10.8577 9.79067C10.5468 10.0966 10.3905 10.4627 10.3889 10.8889C10.3873 11.3151 10.5436 11.6814 10.8577 11.9879C11.1719 12.2943 11.5471 12.4465 11.9835 12.4444Z" fill="black"/>
</svg>
