<svg width="18" height="20" viewBox="0 0 18 20" fill="none" xmlns="http://www.w3.org/2000/svg">
<path d="M0.769231 11.8462V8.15385C0.769231 4.67292 0.769231 2.932 1.83772 1.85108C2.90621 0.770154 4.62473 0.769231 8.06268 0.769231H9.88604C13.324 0.769231 15.0434 0.769231 16.111 1.85108C16.7072 2.45385 16.9707 3.26154 17.0865 4.46154M17.1795 8.15385V11.8462C17.1795 15.3271 17.1795 17.068 16.111 18.1489C15.0425 19.2298 13.324 19.2308 9.88604 19.2308H8.06268C4.62473 19.2308 2.9053 19.2308 1.83772 18.1489C1.24148 17.5462 0.978006 16.7385 0.862222 15.5385M5.32764 11.8462H9.88604M5.32764 8.15385H6.23932M12.6211 8.15385H8.97436" stroke="black" stroke-width="1.5" stroke-linecap="round"/>
</svg>
