<svg width="18" height="14" viewBox="0 0 18 14" fill="none" xmlns="http://www.w3.org/2000/svg">
<path d="M1.68571 1.65306L7.27017 5.71915L7.272 5.72091C7.89189 6.15909 8.20183 6.37861 8.54194 6.46325C8.84237 6.53821 9.15763 6.53821 9.45806 6.46325C9.79817 6.37861 10.109 6.15909 10.7307 5.71915C10.7307 5.71915 14.312 3.06896 16.3143 1.65306M0.771429 10.2931V3.59265C0.771429 2.60522 0.771429 2.11151 0.970743 1.73417C1.14629 1.4018 1.42514 1.1329 1.76983 0.963624C2.16114 0.771429 2.67314 0.771429 3.69714 0.771429H14.3029C15.3269 0.771429 15.8389 0.771429 16.2293 0.963624C16.5739 1.1329 16.8537 1.4018 17.0293 1.73417C17.2286 2.11063 17.2286 2.60434 17.2286 3.59001V10.2966C17.2286 11.2823 17.2286 11.7742 17.0293 12.1515C16.8537 12.4834 16.5736 12.7532 16.2293 12.9221C15.8389 13.1143 15.3278 13.1143 14.3056 13.1143H3.6944C2.67223 13.1143 2.16023 13.1143 1.76983 12.9221C1.42578 12.753 1.14605 12.4833 0.970743 12.1515C0.771429 11.7742 0.771429 11.2805 0.771429 10.2931Z" stroke="black" stroke-width="1.5" stroke-linecap="round" stroke-linejoin="round"/>
</svg>
